PathFileType	4	(X/Y/Z)	Kaydara																																																																																																																																																																																																																																																	
DataRate	CameraRate	NumFrames	NumMarkers	Units	OrigDataRate	OrigDataStartFrame	OrigNumFrames																																																																																																																																																																																																																																													
30	30	7	41	mm	30	269	273																																																																																																																																																																																																																																													
Frame#	Time	SALE_LFHD			SALE_RFHD			SALE_LBHD			SALE_RBHD			SALE_LFTShould			SALE_RFTShould			SALE_LRRShould			SALE_RRRShould			SALE_T10			SALE_STRN			SALE_TRUN			SALE_LSHO			SALE_LUPA			SALE_LELB			SALE_LFRM			SALE_LWRA			SALE_LWRB			SALE_LFIN			SALE_RSHO			SALE_RUPA			SALE_RELB			SALE_RFRM			SALE_RWRB			SALE_RFIN			SALE_LFWT			SALE_RFWT			SALE_LBWT			SALE_RBWT			SALE_LTHI			SALE_LKNE			SALE_RWRA			SALE_LSHN			SALE_LANK			SALE_LHEE			SALE_LTOE			SALE_RTHI			SALE_RKNE			SALE_RSHN			SALE_RANK			SALE_RHEE			SALE_RTOE																																																																																																																										
		X1	Y1	Z1	X2	Y2	Z2	X3	Y3	Z3	X4	Y4	Z4	X5	Y5	Z5	X6	Y6	Z6	X7	Y7	Z7	X8	Y8	Z8	X9	Y9	Z9	X10	Y10	Z10	X11	Y11	Z11	X12	Y12	Z12	X13	Y13	Z13	X14	Y14	Z14	X15	Y15	Z15	X16	Y16	Z16	X17	Y17	Z17	X18	Y18	Z18	X19	Y19	Z19	X20	Y20	Z20	X21	Y21	Z21	X22	Y22	Z22	X23	Y23	Z23	X24	Y24	Z24	X25	Y25	Z25	X26	Y26	Z26	X27	Y27	Z27	X28	Y28	Z28	X29	Y29	Z29	X30	Y30	Z30	X31	Y31	Z31	X32	Y32	Z32	X33	Y33	Z33	X34	Y34	Z34	X35	Y35	Z35	X36	Y36	Z36	X37	Y37	Z37	X38	Y38	Z38	X39	Y39	Z39	X40	Y40	Z40	X41	Y41	Z41																																																																																																																							Y81	Z81
																																																																																																																																																																																																																																																				
239	8.933	195.58689	1475.62195	2131.34598	69.46043	1484.0834	2162.64053	172.96846	1561.8219	2033.50403	51.2826	1566.32401	2068.38455	158.56153	1318.81577	1980.19012	17.48522	1316.89255	2002.64938	136.02669	1387.55493	1878.34732	-11.7079	1392.16797	1908.35876	48.64549	1243.44986	1807.47787	89.11632	1243.89328	2030.19897	91.45299	1155.09689	2064.59839	260.80626	1352.94876	1894.96521	294.82121	1138.8385	1856.30554	275.252	1030.82336	1835.53741	308.96994	924.10194	1855.82886	263.07968	785.74478	1933.40805	317.34041	777.19574	1878.13293	324.21978	733.51051	1924.26224	-96.76865	1355.3569	1959.20242	-147.36093	1125.63499	1907.7002	-169.06158	1027.64351	1965.20355	-162.54622	912.4752	1970.78461	-165.52526	783.68279	2039.1925	-160.37035	755.23346	2100.79498	213.67643	921.30409	1997.56729	-64.6854	913.38387	1992.32941	159.40586	967.60353	1824.42856	-19.11552	976.86646	1822.58698	207.12433	594.25777	1943.20511	192.65776	470.56187	2089.99695	-107.98618	803.9254	2082.715	188.20568	277.86037	2148.15811	178.46273	88.43558	2157.33459	134.5794	27.51098	2108.26569	158.97332	74.592	2298.39905	-56.39434	676.46866	1805.18875	-32.41072	508.55862	1884.01932	34.17359	322.14687	1835.39337	9.46924	84.50885	1726.99997	9.60369	35.78051	1839.68628	64.61429	31.59981	1655.93475																																																																																																																							0	-0.00191
240	8.967	198.62354	1469.60159	2159.59961	72.66512	1478.90717	2192.14386	175.66828	1555.86258	2061.89728	54.22504	1561.02524	2097.73315	159.53831	1313.01208	2009.814	18.29073	1311.5416	2031.9101	137.45945	1381.59149	1907.74811	-10.38255	1386.84814	1937.30209	49.87151	1237.83455	1836.30295	89.4298	1238.4066	2059.82056	91.26743	1149.77249	2094.58145	262.012	1346.61224	1924.59549	295.1001	1132.24525	1886.36215	275.0198	1024.20113	1866.31088	308.38614	917.43378	1886.4946	262.06013	779.4342	1964.14505	315.96085	770.44716	1908.46664	321.90811	726.04401	1954.54712	-95.63233	1350.17471	1988.19931	-146.18011	1120.57861	1936.28937	-167.25842	1022.26395	1993.60184	-160.02668	907.00081	1999.28238	-161.60284	778.37914	2068.07205	-155.57679	750.01022	2129.65927	212.91113	915.00839	2029.57367	-65.43191	907.56783	2021.21613	160.78917	962.668	1856.07101	-17.93337	972.27287	1852.5119	208.59404	587.30713	1967.44537	192.0146	461.05614	2113.40302	-103.85516	799.1983	2111.06567	186.96692	280.37981	2187.98035	179.06954	92.52819	2216.84036	140.93811	24.93084	2174.41467	152.01707	93.77679	2358.02811	-54.8872	675.53101	1828.28354	-32.748	505.4311	1901.67099	34.16483	320.11341	1846.78848	9.20633	87.35374	1729.47403	9.18915	35.82903	1840.06393	64.48311	35.62968	1656.64307																																																																																																																							0	-0.00191
241	9	201.68034	1464.84528	2188.5257	75.89393	1474.54681	2221.50925	178.48347	1550.57327	2090.48386	57.19149	1556.16806	2126.79779	161.36806	1307.07764	2040.39886	19.98508	1306.1261	2061.77979	139.98691	1375.30212	1937.82471	-8.0045	1381.26801	1966.82465	52.19689	1231.50452	1866.92978	90.48828	1232.8627	2090.57175	91.54562	1144.3956	2125.72189	264.34961	1339.81232	1955.13458	296.24943	1125.17502	1917.0491	275.48105	1017.02896	1897.71576	308.7077	910.17044	1917.61261	262.25729	772.51053	1995.93109	315.39852	763.12904	1939.46304	321.15658	718.11409	1985.19318	-93.65072	1344.4986	2017.30972	-144.03563	1114.8484	1964.8999	-164.65776	1016.25626	2021.69235	-157.24149	901.12343	2026.9693	-158.16254	772.18826	2095.03952	-151.33334	743.2531	2156.42212	212.35821	908.52066	2062.88788	-65.97413	901.67465	2051.59637	162.82738	957.41768	1889.2247	-16.07986	967.22839	1884.29337	211.60437	581.5802	1998.51517	193.28024	453.81355	2142.9715	-100.10769	792.87766	2137.70355	187.46975	275.60827	2219.71954	175.17048	89.01632	2254.99969	129.8438	21.15177	2215.14893	154.84182	95.92555	2397.20184	-52.80971	674.21722	1854.63089	-32.86479	502.5692	1921.60461	34.04398	318.53535	1859.43695	8.13367	90.86719	1732.52045	8.43161	36.04747	1840.86929	63.0469	41.48297	1657.48398																																																																																																																							0	-0.00191
242	9.033	204.72984	1461.71951	2218.04169	78.88602	1471.64948	2250.92224	181.32061	1546.2709	2118.97064	60.02118	1552.18384	2155.21866	164.04844	1301.50116	2071.77139	22.54961	1301.31332	2092.60162	143.62616	1369.20807	1968.52142	-4.47622	1375.97778	1996.76849	55.6194	1224.98001	1898.58765	92.60084	1227.85995	2122.33841	92.92006	1139.62601	2158.11172	267.70706	1333.10989	1986.55136	298.27875	1118.08632	1949.04892	276.79512	1010.03403	1930.45105	309.8284	903.18138	1950.04288	263.12202	765.54886	2028.47473	315.84864	756.02867	1971.58249	321.72684	710.77782	2016.8811	-90.68036	1339.52194	2047.11716	-140.59698	1110.05791	1993.45062	-161.24592	1011.06361	2049.40384	-154.34018	896.0183	2053.46298	-155.38646	766.22704	2119.91287	-148.24181	736.23993	2180.73105	213.66663	902.91374	2098.02368	-65.21948	896.16165	2085.18616	164.85893	952.39731	1924.10873	-14.05713	962.19299	1918.36456	214.30834	577.29305	2036.87607	190.55107	448.92303	2177.68341	-97.15132	786.17645	2162.63962	184.91426	265.90847	2246.94138	173.87342	78.17735	2274.81033	132.54632	16.15646	2231.16608	148.938	79.40862	2413.74664	-51.56314	673.35144	1883.50449	-32.39069	500.25112	1944.74487	33.85348	317.62882	1873.97644	6.00439	95.89133	1737.10648	7.61872	35.43089	1841.93878	59.97337	49.94067	1659.1922																																																																																																																							0	-0.00191
243	9.067	207.86263	1461.36154	2248.99384	81.86664	1471.27518	2281.23016	184.99355	1545.41153	2149.33487	63.43005	1551.42029	2185.00702	167.41434	1298.4938	2103.07648	26.18321	1298.85895	2123.64441	148.73183	1366.49002	1999.47678	-0.14308	1374.45633	2027.15073	59.93014	1221.81076	1931.56219	95.82575	1225.54512	2154.66812	95.63084	1137.77626	2191.40335	272.39948	1328.32993	2018.43323	301.43196	1112.27562	1982.80731	279.46892	1004.18427	1965.33279	311.89835	897.38289	1984.25034	264.23111	759.70398	2061.73935	317.11374	750.28008	2004.88937	323.09425	705.26146	2049.83917	-86.90919	1337.31644	2077.26456	-136.10008	1107.05711	2022.19406	-157.15487	1007.91435	2076.97433	-151.16023	893.0867	2079.15466	-153.4545	761.89171	2142.24121	-146.42845	730.32799	2202.41394	214.8399	901.1039	2135.1915	-63.85177	892.11479	2121.62231	167.5943	950.68512	1960.50552	-13.35081	958.3596	1954.3956	213.33071	578.48755	2068.42056	191.33299	445.78903	2203.67996	-95.07547	780.31876	2185.5864	181.75749	263.15058	2271.18546	170.26329	76.94128	2293.96774	128.73075	24.8223	2242.38632	146.49941	50.3484	2438.78143	-49.54784	672.92358	1916.06766	-30.27523	498.71136	1972.10266	34.79263	317.79295	1892.21909	2.31461	103.88393	1744.0004	5.99112	34.93995	1844.25079	54.01694	62.63582	1662.56744																																																																																																																							0	-0.00191
244	9.1	211.16795	1464.40094	2281.05133	84.91998	1474.51172	2312.0813	189.46754	1548.79272	2181.38382	67.55119	1554.91333	2215.91919	171.12162	1300.68939	2134.97223	29.87583	1302.79449	2155.25177	153.4572	1368.58124	2030.81818	4.47096	1377.94067	2058.28979	63.22833	1224.10179	1963.86169	99.27367	1228.4993	2187.2847	98.46025	1141.14975	2225.01251	276.7103	1328.92227	2050.29999	305.24799	1111.93481	2019.0654	283.4935	1003.52608	2002.96875	314.45026	897.34314	2020.89554	265.56295	759.21066	2095.50125	318.97715	750.00046	2039.23309	324.74907	704.84894	2083.73337	-82.73447	1341.02814	2108.22678	-131.07556	1110.55969	2052.04498	-152.03659	1011.28555	2106.03439	-147.71711	896.99532	2104.08401	-152.26809	763.05748	2161.44287	-146.15399	729.04022	2220.10651	215.53497	908.00858	2171.94138	-62.61854	891.76712	2157.94876	167.67361	956.47972	1996.84998	-13.56385	958.55576	1990.94559	219.67562	585.75676	2095.634	192.79051	448.18291	2227.55203	-93.70608	778.5527	2205.21164	180.08577	263.33258	2289.42749	169.56121	76.27444	2305.70847	129.39191	27.0041	2248.89618	137.31473	43.80554	2443.88031	-46.24156	673.11058	1952.70248	-26.14956	498.15147	2007.72354	36.12197	318.27768	1917.03613	-2.57924	115.36297	1754.8172	3.87935	34.65697	1848.28964	46.22452	80.83788	1669.29535																																																																																																																							0	-0.00191
245	9.133	214.64886	1470.5101	2312.94174	88.29276	1481.40137	2342.79327	194.40416	1555.05569	2213.17123	72.15712	1561.96716	2246.59027	174.94757	1307.72064	2166.97662	33.48859	1311.27182	2187.42798	157.7285	1374.2601	2062.34344	9.07098	1384.94186	2089.08295	66.29228	1229.97406	1996.51489	102.11095	1237.1299	2219.54834	100.47219	1150.47722	2258.72513	280.68203	1334.39026	2082.55341	308.43269	1116.98235	2055.43243	286.30827	1008.80478	2040.29373	317.34186	903.25348	2058.0397	268.15781	764.26514	2130.89081	322.45438	755.7914	2075.42007	326.91463	709.68376	2119.32388	-78.68176	1350.21301	2139.07806	-125.96369	1120.51041	2081.22559	-146.59454	1020.88417	2134.41986	-143.84717	907.29126	2128.17429	-151.83269	771.43684	2179.45587	-146.32072	733.45177	2235.50644	216.51838	918.82942	2206.9603	-60.84024	894.35593	2194.07532	166.27954	965.49675	2032.03827	-13.76437	961.87248	2026.81747	228.25357	596.75529	2123.11768	197.66819	454.24911	2246.61148	-92.85527	782.82249	2223.64777	183.75183	264.32024	2298.15826	171.40049	75.55998	2305.81253	131.3313	26.60713	2248.96744	138.60893	42.39875	2446.23062	-41.33364	671.66	1992.83661	-22.29186	496.54648	2052.33627	36.75519	317.48779	1949.96872	-8.70238	130.41759	1770.73792	1.75183	34.13829	1853.63312	37.20302	105.34755	1681.54755																																																																																																																							0	-0.00191
